<svg width="88" height="88" viewBox="0 0 88 88" fill="none" xmlns="http://www.w3.org/2000/svg">
<path d="M64.5 22C62.3 19.2 62.5 15.2 65 12.7C66.3 11.4 68.1 10.7 70 10.7C71.9 10.7 73.6 11.4 75 12.7C77.7 15.4 77.7 19.9 75 22.6C73.6 24 71.8 24.6 70 24.6C68.9 24.6 67.9 24.4 66.9 23.9L60.2 30.6C59.6 29.8 58.9 29.1001 58.1 28.4001L64.5 22ZM70 62.7C68.7 62.7 67.4 63.1 66.4 63.7L59.7 58C59 58.7 58.3 59.4 57.5 60.1L64.2 65.8C62.4 68.5 62.7 72.3 65.1 74.7C66.5 76.1 68.3 76.7 70.1 76.7C71.9 76.7 73.7 76 75.1 74.7C77.8 71.9 77.8 67.5 75.1 64.8C73.6 63.4 71.9 62.7 70 62.7ZM85.4 38.8C83.9 37.5 81.9 36.8 80 37.1C77 37.4 74.6 39.7 74 42.6H65C65 43.1 65.1 43.6 65.1 44.1C65.1 44.6 65.1 45.1 65 45.6H74C74.3 46.8 74.8 47.8001 75.6 48.7001C76.9 50.2001 78.8 51.1 80.8 51.1C84.7 51.1 87.8 48 87.8 44.1C87.8 42 86.9 40.1 85.4 38.8ZM45.5 73.9V64.9C45 65 44.5 65 44 65C43.5 65 43 65 42.5 64.9V73.9C39.4 74.6 37 77.4 37 80.7C37 84.6 40.1 87.7 44 87.7C47.9 87.7 51 84.6 51 80.7C51 77.4 48.6 74.6 45.5 73.9ZM14.1 45.5H23.1C23.1 45 23 44.5 23 44C23 43.5 23 43 23.1 42.5H14.1C13.4 39.4 10.6 37 7.30005 37C3.40005 37 0.300049 40.1 0.300049 44C0.300049 47.9 3.40005 51 7.30005 51C10.6 51 13.4 48.6 14.1 45.5ZM18 24.6C18.1 24.6 18.3 24.6 18.4 24.6C19.7 24.5 20.9 24.1 21.9 23.4L28.4001 29.9001C29.1001 29.2001 29.8 28.4 30.5 27.8L23.9 21.2001C25.4 18.8001 25.3 15.7 23.6 13.4C22.3 11.6 20.2 10.5 17.9 10.5C16 10.5 14.3 11.2 12.9 12.5C10.2 15.3 10.2 19.7 12.9 22.4C14.3 23.9 16.1 24.6 18 24.6ZM24.3 66.5L30.4001 59.9001C29.6001 59.2001 28.9 58.5 28.3 57.8L22.5 64.1C21.3 63.1 19.7 62.6 18.1 62.6C16 62.6 14 63.5 12.7 65.2C10.5 67.8 10.6 71.7 12.9 74.3C14.2 75.7 16 76.6 17.9 76.6C18 76.6 18 76.6 18.1 76.6C20 76.6 21.7 75.9 23.1 74.6C25.1 72.5 25.5 69.2 24.3 66.5ZM42.5 14.1V23.1C43 23.1 43.5 23 44 23C44.5 23 45 23 45.5 23.1V14.1C48.6 13.4 51 10.6 51 7.30005C51 3.40005 47.9 0.300049 44 0.300049C40.1 0.300049 37 3.40005 37 7.30005C37 10.6 39.3 13.4 42.5 14.1ZM44 47.5C38 47.5 33.1 52.3 33 58.2C36.1 60.6 40 62 44 62C48 62 51.9 60.7 55 58.2C54.9 52.3 50 47.5 44 47.5ZM44 26C34.1 26 26 34.1 26 44C26 48.3 27.5 52.4001 30.3 55.7001C31.3 51.0001 34.6001 47.2 38.9001 45.5C37.4001 44.1 36.5 42.2 36.5 40C36.5 35.9 39.9 32.5 44 32.5C48.1 32.5 51.5 35.9 51.5 40C51.5 42.2 50.6 44.1 49.1 45.5C53.4 47.2 56.7001 51.0001 57.7001 55.7001C60.5001 52.4001 62 48.3 62 44C62 34.1 53.9 26 44 26ZM48.5 40C48.5 37.5 46.5 35.5 44 35.5C41.5 35.5 39.5 37.5 39.5 40C39.5 42.5 41.5 44.5 44 44.5C46.5 44.5 48.5 42.5 48.5 40Z" fill="black"/>
</svg>
